<svg xmlns="http://www.w3.org/2000/svg" viewBox="0 0 15.48 16.69"><defs><style>.cls-1{fill:#fff;}</style></defs><title>telos_logo</title><g id="Слой_2" data-name="Слой 2"><g id="Слой_1-2" data-name="Слой 1"><path class="cls-1" d="M11.57,2.94,13.12,0H10L9.25,1.31l-6.86-.2L0,3.55l.77,1.6a.42.42,0,0,0,.1.2l.34.72L.31,7v4l2,5.79,5.89-1.37,3.53-2.38.07-1.09,3.32-.48.35-3Zm.09,8-.79.11,0,.79,0,.61-3,2L3,15.53,1.3,10.74V7.36l.61-.6.5-.49-.3-.62,0-.05,6,.53,3.76,4.74Zm2.57-.37-1.31.19a.39.39,0,0,0-.06-.11L8.58,5.2l-7-.62-.4-.84L2.8,2.09l6.42.19.59,0,.3-.51L10.58,1h.91l-.8,1.52L10.4,3l.36.49L14.45,8.6Z"/></g></g></svg>