<?xml version="1.0" encoding="utf-8"?>
<!-- Generator: Adobe Illustrator 15.0.0, SVG Export Plug-In . SVG Version: 6.00 Build 0)  -->
<!DOCTYPE svg PUBLIC "-//W3C//DTD SVG 1.1//EN" "http://www.w3.org/Graphics/SVG/1.1/DTD/svg11.dtd">
<svg version="1.1" id="Layer_1" xmlns="http://www.w3.org/2000/svg" xmlns:xlink="http://www.w3.org/1999/xlink" x="0px" y="0px"
	 width="572px" height="546px" viewBox="0 0 572 546" enable-background="new 0 0 572 546" xml:space="preserve">
<g>
	<polygon fill-rule="evenodd" clip-rule="evenodd" fill="#576357" points="19,227.274 19,321.482 66.104,239.898 66.104,145.689 	
		"/>
	<polygon fill-rule="evenodd" clip-rule="evenodd" fill="#707C70" points="19,321.482 66.104,403.068 113.208,321.482 
		66.104,239.898 	"/>
	
		<rect x="83.345" y="338.724" transform="matrix(0.5 -0.866 0.866 0.5 -268.9121 305.8856)" fill-rule="evenodd" clip-rule="evenodd" fill="#8C968C" width="94.207" height="94.206"/>
	<polygon fill-rule="evenodd" clip-rule="evenodd" fill="#A2AAA2" points="194.793,368.588 147.689,450.172 241.897,450.172 
		289.002,368.588 	"/>
	<polygon fill-rule="evenodd" clip-rule="evenodd" fill="#BABFBA" points="289.002,368.588 241.897,450.172 323.482,403.068 
		370.588,321.482 	"/>
	<polygon fill-rule="evenodd" clip-rule="evenodd" fill="#6E8E8D" points="113.208,484.654 194.793,531.758 147.689,450.172 
		66.104,403.068 	"/>
	<polygon fill-rule="evenodd" clip-rule="evenodd" fill="#86A3A2" points="194.793,531.758 289.002,531.758 241.897,450.172 
		147.689,450.172 	"/>
	
		<rect x="259.138" y="420.309" transform="matrix(-0.5 -0.866 0.866 -0.5 54.5781 966.3364)" fill-rule="evenodd" clip-rule="evenodd" fill="#A7C1BF" width="94.208" height="94.207"/>
	<polygon fill-rule="evenodd" clip-rule="evenodd" fill="#C7DDDB" points="323.482,403.068 370.588,484.654 417.691,403.068 
		370.588,321.482 	"/>
	<polygon fill-rule="evenodd" clip-rule="evenodd" fill="#DCEAE8" points="417.691,403.068 417.691,308.865 370.588,227.274 
		370.588,321.482 	"/>
	<polygon fill-rule="evenodd" clip-rule="evenodd" fill="#A7C1BF" points="194.793,368.588 289.002,368.588 207.416,321.482 
		113.208,321.482 	"/>
	<polygon fill-rule="evenodd" clip-rule="evenodd" fill="#86A3A2" points="66.104,239.898 113.208,321.482 207.416,321.482 
		160.312,239.898 	"/>
	<rect x="66.104" y="145.689" fill-rule="evenodd" clip-rule="evenodd" fill="#6E8E8D" width="94.208" height="94.208"/>
	<polygon fill-rule="evenodd" clip-rule="evenodd" fill="#5E8484" points="160.312,145.689 207.416,64.104 113.208,64.104 
		66.104,145.689 	"/>
	<polygon fill-rule="evenodd" clip-rule="evenodd" fill="#456C6D" points="289.002,17 194.793,17 113.208,64.104 207.416,64.104 	
		"/>
	<polygon fill-rule="evenodd" clip-rule="evenodd" fill="#CFD1CF" points="207.416,227.274 160.312,145.689 160.312,239.898 
		207.416,321.482 	"/>
	<polygon fill-rule="evenodd" clip-rule="evenodd" fill="#BABFBA" points="254.521,145.689 207.416,64.104 160.312,145.689 
		207.416,227.274 	"/>
	
		<rect x="224.657" y="34.241" transform="matrix(-0.5 -0.866 0.866 -0.5 337.1974 357.3681)" fill-rule="evenodd" clip-rule="evenodd" fill="#A2AAA2" width="94.207" height="94.207"/>
	<polygon fill-rule="evenodd" clip-rule="evenodd" fill="#8C968C" points="336.105,98.585 430.314,98.585 383.209,17 289.002,17 	
		"/>
	<polygon fill-rule="evenodd" clip-rule="evenodd" fill="#707C70" points="511.898,145.689 464.795,64.104 383.209,17 
		430.314,98.585 	"/>
	<polygon fill-rule="evenodd" clip-rule="evenodd" fill="#E0E0E0" points="370.588,484.654 289.002,531.758 383.209,531.758 
		464.795,484.654 	"/>
	<polygon fill-rule="evenodd" clip-rule="evenodd" fill="#CFD1CF" points="417.691,403.068 370.588,484.654 464.795,484.654 
		511.898,403.068 	"/>
	<rect x="417.691" y="308.865" fill-rule="evenodd" clip-rule="evenodd" fill="#BABFBA" width="94.207" height="94.203"/>
	<polygon fill-rule="evenodd" clip-rule="evenodd" fill="#A2AAA2" points="370.588,227.274 417.691,308.865 511.898,308.865 
		464.795,227.274 	"/>
	<polygon fill-rule="evenodd" clip-rule="evenodd" fill="#8C968C" points="289.002,180.17 370.588,227.274 464.795,227.274 
		383.209,180.17 	"/>
	<polygon fill-rule="evenodd" clip-rule="evenodd" fill="#C7DDDB" points="511.898,308.865 511.898,403.068 559,321.482 
		559,227.274 	"/>
	<polygon fill-rule="evenodd" clip-rule="evenodd" fill="#A7C1BF" points="464.795,227.274 511.898,308.865 559,227.274 
		511.898,145.689 	"/>
	
		<rect x="400.451" y="115.827" transform="matrix(-0.5 0.866 -0.866 -0.5 812.4347 -143.1974)" fill-rule="evenodd" clip-rule="evenodd" fill="#86A3A2" width="94.206" height="94.206"/>
	<polygon fill-rule="evenodd" clip-rule="evenodd" fill="#6E8E8D" points="289.002,180.17 383.209,180.17 430.314,98.585 
		336.105,98.585 	"/>
	<polygon fill-rule="evenodd" clip-rule="evenodd" fill="#5E8484" points="289.002,180.17 336.105,98.585 254.521,145.689 
		207.416,227.274 	"/>
</g>
</svg>
