<svg xmlns="http://www.w3.org/2000/svg" viewBox="0 0 37.13 4.12"><defs><style>.cls-1{fill:#fff;}</style></defs><title>Ресурс 7</title><g id="Слой_2" data-name="Слой 2"><g id="Слой_1-2" data-name="Слой 1"><path class="cls-1" d="M.7,4A2,2,0,0,1,0,3.64l.26-.58a2.25,2.25,0,0,0,.62.32,2.28,2.28,0,0,0,.73.12,1.35,1.35,0,0,0,.68-.14A.45.45,0,0,0,2.51,3a.33.33,0,0,0-.13-.28.73.73,0,0,0-.31-.18l-.53-.14a6,6,0,0,1-.75-.22,1.21,1.21,0,0,1-.5-.34.93.93,0,0,1-.2-.63A1.06,1.06,0,0,1,.27.59,1.28,1.28,0,0,1,.82.16,2.25,2.25,0,0,1,1.73,0a3,3,0,0,1,.73.09,2.25,2.25,0,0,1,.63.26L2.85.93A2.45,2.45,0,0,0,2.29.7,1.91,1.91,0,0,0,1.72.62a1.15,1.15,0,0,0-.66.15.44.44,0,0,0-.22.39A.36.36,0,0,0,1,1.44a1,1,0,0,0,.32.17c.13,0,.3.09.53.14A6.28,6.28,0,0,1,2.55,2a1.31,1.31,0,0,1,.5.34.88.88,0,0,1,.21.62,1.07,1.07,0,0,1-.19.6A1.28,1.28,0,0,1,2.52,4a2.47,2.47,0,0,1-.91.16A3.39,3.39,0,0,1,.7,4Z"/><path class="cls-1" d="M7.19.23a1.33,1.33,0,0,1,.6.49A1.35,1.35,0,0,1,8,1.48a1.38,1.38,0,0,1-.21.76,1.33,1.33,0,0,1-.6.49,2.19,2.19,0,0,1-.92.17H5.35V4.06H4.59v-4H6.27A2.19,2.19,0,0,1,7.19.23ZM7,2.07a.72.72,0,0,0,.26-.59A.73.73,0,0,0,7,.89a1.16,1.16,0,0,0-.75-.2H5.35V2.28h.88A1.16,1.16,0,0,0,7,2.07Z"/><path class="cls-1" d="M12.4,3.44v.62H9.34v-4h3V.68H10.1v1h2v.61h-2V3.44Z"/><path class="cls-1" d="M14.58,3.85a1.9,1.9,0,0,1-.78-.73,2,2,0,0,1-.29-1.06A2,2,0,0,1,13.8,1a2,2,0,0,1,.78-.73A2.32,2.32,0,0,1,15.7,0a2.42,2.42,0,0,1,.91.17,1.87,1.87,0,0,1,.7.5l-.49.45A1.44,1.44,0,0,0,15.73.65,1.54,1.54,0,0,0,15,.83a1.39,1.39,0,0,0-.52.5,1.49,1.49,0,0,0-.18.73,1.43,1.43,0,0,0,.18.72,1.32,1.32,0,0,0,.52.5,1.44,1.44,0,0,0,.75.18A1.41,1.41,0,0,0,16.82,3l.49.46a1.85,1.85,0,0,1-.7.49,2.43,2.43,0,0,1-2-.09Z"/><path class="cls-1" d="M19.4.69H18.05V.06h3.46V.69H20.16V4.06H19.4Z"/><path class="cls-1" d="M25.33,4.06l-.84-1.17H23.42V4.06h-.76v-4h1.68a2.19,2.19,0,0,1,.92.17,1.33,1.33,0,0,1,.6.49,1.35,1.35,0,0,1,.21.76,1.35,1.35,0,0,1-.22.78,1.3,1.3,0,0,1-.64.48l.93,1.32ZM25.05.89a1.16,1.16,0,0,0-.75-.2h-.88V2.28h.88a1.16,1.16,0,0,0,.75-.21.72.72,0,0,0,.26-.59A.7.7,0,0,0,25.05.89Z"/><path class="cls-1" d="M27.94,3.65a1.76,1.76,0,0,1-.48-1.33V.06h.76V2.29c0,.78.35,1.17,1,1.17s1-.39,1-1.17V.06H31V2.32a1.76,1.76,0,0,1-.47,1.33,2.06,2.06,0,0,1-2.62,0Z"/><path class="cls-1" d="M36.42,4.06V1.41L35.07,3.6h-.33L33.4,1.44V4.06h-.72v-4h.62l1.62,2.65L36.51.06h.62v4Z"/></g></g></svg>