<svg xmlns="http://www.w3.org/2000/svg" viewBox="0 0 15.34 7.27"><defs><style>.cls-1{fill:#9e6a00;}</style></defs><title>wax_logo</title><g id="Слой_2" data-name="Слой 2"><g id="Слой_1-2" data-name="Слой 1"><path class="cls-1" d="M11.87,7.26H9.57a.21.21,0,0,1-.23-.15L7.93,3.51c-.07-.17-.13-.35-.21-.57a2.34,2.34,0,0,0-.2.37C7,4.59,6.49,5.87,6,7.16a.17.17,0,0,1-.18.11H3.49c-.22,0-.45,0-.68,0s-.13,0-.16-.12C2.25,6.05,1.84,5,1.43,3.88,1,2.63.5,1.38,0,.12A.41.41,0,0,1,0,0L.17,0H2.26a.21.21,0,0,1,.23.17c.57,1.48,1.15,3,1.72,4.46a.88.88,0,0,1,.07.14l.28-.67C5.09,2.8,5.63,1.49,6.16.18A.25.25,0,0,1,6.44,0H8.91a.27.27,0,0,1,.3.19c.17.52.36,1,.55,1.54.46,1.21.93,2.41,1.4,3.62l.66,1.76A.86.86,0,0,1,11.87,7.26Z"/><path class="cls-1" d="M15.34,0,13,6.21h0c-.08-.17-.15-.35-.22-.53l-1-2.57a.5.5,0,0,1,0-.38c.35-.86.68-1.72,1-2.58,0-.08.06-.14.17-.14h2.39Z"/></g></g></svg>