<svg xmlns="http://www.w3.org/2000/svg" viewBox="0 0 15.71 16.32"><defs><style>.cls-1{fill:#fff;}</style></defs><title>bos_logo</title><g id="Слой_2" data-name="Слой 2"><g id="Слой_1-2" data-name="Слой 1"><path class="cls-1" d="M0,8.49A4.51,4.51,0,0,1,6.21,4.1c.51.21.54.2.59-.34a4.49,4.49,0,0,1,8.74-.55,4.29,4.29,0,0,1-.77,3.87c-.14.18-.26.25-.49.09s-.67-.24-.77-.46.3-.47.45-.73a3,3,0,0,0-.34-3.64A3.26,3.26,0,0,0,10,1.49,3.12,3.12,0,0,0,8.07,4.78a3.17,3.17,0,0,0,2.56,2.67,13.39,13.39,0,0,1,2.17.33,4.43,4.43,0,0,1,2.86,4.67A4.2,4.2,0,0,1,12.75,16a4.38,4.38,0,0,1-4.64-1A4.11,4.11,0,0,1,7,13.47a.27.27,0,0,1,.14-.4c.29-.15.58-.49.83-.46s.26.52.42.79A3.24,3.24,0,0,0,11.76,15a3.19,3.19,0,0,0,2.62-2.67,3.14,3.14,0,0,0-2-3.31,3.23,3.23,0,0,0-3.73,1,6.43,6.43,0,0,1-1.86,1.85A4.44,4.44,0,0,1,2.25,12,4.11,4.11,0,0,1,0,8.49Zm4.44,2.75A3.13,3.13,0,0,0,7.67,8.13a3.2,3.2,0,0,0-6.4,0A3.14,3.14,0,0,0,4.44,11.24Z"/></g></g></svg>