<svg xmlns="http://www.w3.org/2000/svg" viewBox="0 0 21.95 2.43"><defs><style>.cls-1{fill:#333;}</style></defs><title>Ресурс 8</title><g id="Слой_2" data-name="Слой 2"><g id="Слой_1-2" data-name="Слой 1"><path class="cls-1" d="M.41,2.36A1.42,1.42,0,0,1,0,2.15l.15-.34A1.42,1.42,0,0,0,.52,2,1.61,1.61,0,0,0,1,2.07.72.72,0,0,0,1.35,2a.24.24,0,0,0,.13-.22.22.22,0,0,0-.07-.17.67.67,0,0,0-.19-.1L.91,1.41.47,1.28a.88.88,0,0,1-.3-.2A.55.55,0,0,1,.05.71.66.66,0,0,1,.16.35.74.74,0,0,1,.49.09,1.36,1.36,0,0,1,1,0a2.2,2.2,0,0,1,.44.05,1.19,1.19,0,0,1,.36.16L1.68.55A1.22,1.22,0,0,0,1.35.41,1.26,1.26,0,0,0,1,.36a.72.72,0,0,0-.4.09A.29.29,0,0,0,.5.69.2.2,0,0,0,.57.85.49.49,0,0,0,.76,1L1.07,1l.44.12a.86.86,0,0,1,.29.21.52.52,0,0,1,.12.36.6.6,0,0,1-.1.35.78.78,0,0,1-.33.26A1.45,1.45,0,0,1,1,2.43,1.9,1.9,0,0,1,.41,2.36Z"/><path class="cls-1" d="M4.25.13a.79.79,0,0,1,.35.3.73.73,0,0,1,.13.45.72.72,0,0,1-.13.44.79.79,0,0,1-.35.3,1.54,1.54,0,0,1-.55.1H3.16V2.4H2.71V0h1A1.54,1.54,0,0,1,4.25.13ZM4.13,1.22A.41.41,0,0,0,4.28.88.41.41,0,0,0,4.13.53.71.71,0,0,0,3.68.41H3.16v.93h.52A.71.71,0,0,0,4.13,1.22Z"/><path class="cls-1" d="M7.33,2V2.4H5.52V0H7.28V.4H6V1H7.13v.36H6V2Z"/><path class="cls-1" d="M8.61,2.28a1.22,1.22,0,0,1-.46-.44A1.17,1.17,0,0,1,8,1.22,1.13,1.13,0,0,1,8.16.59,1.12,1.12,0,0,1,8.62.16,1.29,1.29,0,0,1,9.28,0a1.4,1.4,0,0,1,.54.1,1.12,1.12,0,0,1,.41.3L9.94.66A.85.85,0,0,0,9.3.39a.93.93,0,0,0-.45.1.72.72,0,0,0-.3.3.77.77,0,0,0-.11.43.79.79,0,0,0,.11.43.76.76,0,0,0,.3.29.94.94,0,0,0,.45.11.86.86,0,0,0,.64-.28l.29.27a1.09,1.09,0,0,1-.41.29,1.42,1.42,0,0,1-.55.1A1.45,1.45,0,0,1,8.61,2.28Z"/><path class="cls-1" d="M11.47.41h-.8V0h2V.41h-.8v2h-.44Z"/><path class="cls-1" d="M15,2.4l-.49-.69h-.64V2.4h-.45V0h1a1.54,1.54,0,0,1,.55.1.88.88,0,0,1,.36.3.79.79,0,0,1,.12.45.82.82,0,0,1-.13.45.79.79,0,0,1-.38.29l.55.78ZM14.81.53a.71.71,0,0,0-.45-.12h-.52v.94h.52a.65.65,0,0,0,.45-.13A.41.41,0,0,0,15,.88.41.41,0,0,0,14.81.53Z"/><path class="cls-1" d="M16.51,2.16a1.06,1.06,0,0,1-.28-.79V0h.45V1.35c0,.47.2.7.61.7s.61-.23.61-.7V0h.44V1.37a1.06,1.06,0,0,1-.28.79,1,1,0,0,1-.77.27A1.07,1.07,0,0,1,16.51,2.16Z"/><path class="cls-1" d="M21.52,2.4V.83l-.79,1.3h-.2L19.74.85V2.4h-.43V0h.37l1,1.57L21.57,0h.37V2.4Z"/></g></g></svg>