<svg xmlns="http://www.w3.org/2000/svg" viewBox="0 0 18.12 5.99"><defs><style>.cls-1{fill:#fff;}</style></defs><title>worbli_logo</title><g id="Слой_2" data-name="Слой 2"><g id="Слой_1-2" data-name="Слой 1"><path class="cls-1" d="M13.61,6A3,3,0,0,1,10.8,4c-.21-.44-.36-.91-.54-1.35A4,4,0,0,0,10,2.07,1,1,0,0,0,8.19,2c-.24.38-.38.82-.58,1.22a11.65,11.65,0,0,1-1,1.87,2.06,2.06,0,0,1-3.24,0A11.23,11.23,0,0,1,2.29,3.31C2.1,3,2,2.54,1.8,2.18A1.36,1.36,0,0,0,.64,1.39.68.68,0,0,1,0,.72.68.68,0,0,1,.74,0,2.17,2.17,0,0,1,2.31.7a5.68,5.68,0,0,1,1.2,2,6.54,6.54,0,0,0,.72,1.42.8.8,0,0,0,1.35.12,4.13,4.13,0,0,0,.9-1.64,9.88,9.88,0,0,1,.7-1.51,2.22,2.22,0,0,1,3.8.06c.28.5.49,1,.76,1.53a10.89,10.89,0,0,0,.83,1.45A.79.79,0,0,0,14,4.07a15.46,15.46,0,0,0,.88-1.72A4.92,4.92,0,0,1,16.14.54,1.32,1.32,0,0,1,17.78.38a.55.55,0,0,1,.33.63.63.63,0,0,1-.6.51,1.1,1.1,0,0,0-1.09.71c-.34.7-.65,1.41-1,2.08a5,5,0,0,1-.94,1.2A3.12,3.12,0,0,1,13.61,6Z"/></g></g></svg>