<svg xmlns="http://www.w3.org/2000/svg" viewBox="0 0 15.73 17.47"><defs><style>.cls-1{fill:#fff;}</style></defs><title>eos_logo</title><g id="Слой_2" data-name="Слой 2"><g id="Слой_1-2" data-name="Слой 1"><path class="cls-1" d="M15.73,14l-.16.1L13.52,15,9.74,16.66,8,17.45a.39.39,0,0,1-.26,0L3,15.35.18,14.08C0,14,0,13.92,0,13.78c.27-.81.52-1.63.77-2.44L2,7.69c.23-.73.44-1.46.69-2.18A1.65,1.65,0,0,1,3.06,5L7.68.12C7.83,0,7.86,0,8,.12L11.4,3.65,12.9,5.2a1.54,1.54,0,0,1,.32.72c.3,1,.59,1.89.89,2.83.24.77.47,1.54.71,2.3l.87,2.76ZM7.85,4.12l-.14.15L7,5.16C6.1,6.31,5.18,7.46,4.28,8.61a.19.19,0,0,0,0,.19l1.1,2.57,1,2.39c0,.08.09.1.2.1H9.13c.11,0,.16,0,.19-.11l1.14-2.64,1-2.32a.24.24,0,0,0,0-.2l-.74-.93L8.62,5.08ZM11.58,8.5c.15-.37.28-.69.42-1,.27-.67.55-1.33.81-2a.16.16,0,0,0,0-.16c-.16-.19-.34-.37-.51-.55L8.49.86C8.33.68,8.16.51,8,.31c0,.08,0,.11,0,.15V3.83a.58.58,0,0,0,.11.26L10.9,7.65ZM7.75.35h0L7.62.42l-2,2.13L3,5.31a.24.24,0,0,0,0,.2c.3.76.61,1.51.91,2.26l.29.71s.07-.05.08-.07l.74-.93c.83-1,1.64-2.07,2.47-3.1a1.31,1.31,0,0,0,.35-.91c0-1,0-2,0-3ZM.25,13.85h6l-2.14-5Zm15.2,0-3.82-5-2.14,5ZM.51,14v0l7.17,3.23a.79.79,0,0,1,0-.12L7.09,15.9c-.25-.58-.5-1.16-.74-1.74,0-.12-.13-.16-.29-.16H.51Zm14.7,0,0,0H9.69c-.21,0-.29.05-.35.19-.35.81-.7,1.63-1.06,2.44L8,17.27ZM13,5.68l0,.1c-.39.93-.77,1.87-1.15,2.81a.18.18,0,0,0,0,.17l1.51,2c.62.82,1.25,1.63,1.88,2.45,0,.06.09.12.13.19l0,0ZM2.81,5.74H2.76L.35,13.37a.27.27,0,0,0,.13-.1L1.75,11.6,3.91,8.78a.22.22,0,0,0,0-.22C3.71,8,3.47,7.37,3.23,6.78ZM9.21,14H6.49l1.33,3.11h0Z"/></g></g></svg>