<svg xmlns="http://www.w3.org/2000/svg" viewBox="0 0 9.31 7.05"><defs><style>.cls-1{fill:#fff;}</style></defs><title>Ресурс 9</title><g id="Слой_2" data-name="Слой 2"><g id="Слой_1-2" data-name="Слой 1"><path class="cls-1" d="M9.22,6,6.51,4.48a3.29,3.29,0,0,0,.22-1.17A3.34,3.34,0,0,0,3.37,0,3.35,3.35,0,0,0,0,3.31,3.36,3.36,0,0,0,5.94,5.42L8.74,7c.11.07.29-.06.4-.28l.09-.19C9.34,6.34,9.33,6.1,9.22,6ZM3.37,5.63A2.35,2.35,0,0,1,1,3.31,2.34,2.34,0,0,1,3.37,1,2.34,2.34,0,0,1,5.73,3.31,2.34,2.34,0,0,1,3.37,5.63Z"/></g></g></svg>