<svg xmlns="http://www.w3.org/2000/svg" viewBox="0 0 194.7 196.89"><defs><style>.cls-1{fill:#1c8fcf;}</style></defs><title>Ресурс 2</title><g id="Слой_2" data-name="Слой 2"><g id="Слой_1-2" data-name="Слой 1"><path class="cls-1" d="M153.36,33.21c-.19-.18-.38-.36-.59-.53l-1.2-1-1.21-1-.6-.51c-.2-.16-.42-.31-.63-.47l-2.51-1.9c-.41-.32-.86-.6-1.29-.9L144,26l-1.31-.89-1.35-.81L140,23.51l-.68-.41a3.79,3.79,0,0,0-.34-.2l-.34-.19-2.79-1.48c-.23-.12-.46-.26-.7-.37l-.72-.34L133,19.85l-1.43-.67-1.46-.61-1.46-.6c-.5-.19-1-.41-1.48-.58l-3-1.05c-.49-.19-1-.33-1.51-.49l-1.52-.45L119.64,15l-1.54-.38-1.54-.38-.77-.19-.78-.16-3.12-.6A92.46,92.46,0,0,0,99.23,12a93.45,93.45,0,0,0-12.73.66A91.07,91.07,0,0,0,74,15.2l-3.06.92c-.52.15-1,.34-1.52.51l-1.51.54-1.51.54-1.48.61-1.48.61c-.49.21-1,.4-1.47.64l-2.9,1.37-.36.17-.35.19-.71.38-1.41.76-1.42.76L53.43,24l-1.38.83-.69.41c-.23.14-.44.29-.67.44L48,27.49c-.45.29-.87.63-1.3.94l-1.29,1-1.28,1-1.24,1-1.24,1-.62.51-.3.26-.3.27-2.37,2.18-.59.54-.56.57-1.13,1.15c-1.54,1.49-2.91,3.14-4.34,4.74-.69.82-1.34,1.67-2,2.51-.34.42-.68.83-1,1.26l-.94,1.31L26.58,49c-.31.44-.63.87-.91,1.33L23.92,53c-.3.45-.55.92-.82,1.38l-.81,1.4-.8,1.4c-.25.47-.49,1-.73,1.43L20,60.09l-.37.71-.18.36-.16.37L18,64.47c-.1.25-.22.49-.32.74l-.29.75-.59,1.5L16.22,69c-.18.5-.34,1-.51,1.52L15.19,72c-.16.51-.35,1-.48,1.54l-.87,3.1c-.16.52-.26,1-.39,1.57L13.1,79.8c-.12.52-.24,1-.35,1.57L12.47,83l-.28,1.59-.14.79c-.05.26-.07.53-.11.8l-.41,3.2a97,97,0,0,0-.42,12.87,98.21,98.21,0,0,0,1.5,12.8l.68,3.15c.05.26.1.53.17.79l.2.78.42,1.55.41,1.56c.15.52.32,1,.48,1.54l.1.33.22.73.24.72c.14.43.27.86.44,1.28l.15.41.22.64c.18.5.34,1,.56,1.51l1.2,3c.19.5.43,1,.66,1.47l.67,1.46c.23.49.45,1,.69,1.46l.74,1.43.75,1.43L22,141c.12.24.26.47.4.7L24,144.43a96.53,96.53,0,0,0,7.53,10.46,97.8,97.8,0,0,0,9,9.21L43,166.19c.21.17.41.35.62.51l.64.5,1.27,1,1.28,1,1.32.92,1.33.92c.44.31.87.62,1.34.9l2.73,1.7c.45.29.93.54,1.4.81l1.41.78,1.41.78,1.44.71,1.45.72.72.35c.24.12.49.22.73.33l3,1.28.37.16.38.15.75.28,1.51.57,1.51.56,1.53.49,1.54.49c.51.16,1,.33,1.54.46l3.11.82c.52.14,1,.25,1.57.36l1.57.33,1.58.33c.53.1,1.06.17,1.59.26,1.06.16,2.11.34,3.18.49,2.13.22,4.25.5,6.4.57l1.6.08c.27,0,.54,0,.8,0h4.82l.81,0,1.6-.08,1.61-.08,1.59-.16,1.6-.15c.53-.06,1.07-.09,1.6-.19l3.17-.47c.27,0,.53-.07.79-.13l.79-.16,1.57-.32,1.58-.32c.52-.12,1-.26,1.55-.39l1.55-.4.78-.2.39-.1.38-.12,3.07-.94c.51-.15,1-.34,1.51-.52l1.51-.55,1.5-.54,1.48-.62,1.48-.63c.49-.21,1-.4,1.46-.64l2.88-1.39a91.31,91.31,0,0,0,11-6.57,94.5,94.5,0,0,0,9.83-8.11,91.79,91.79,0,0,0,8.51-9.46l1.89-2.55c.16-.21.32-.42.47-.64l.44-.66.88-1.32.88-1.32.82-1.36.82-1.36c.27-.45.55-.9.79-1.37l1.49-2.8c.26-.46.46-.95.7-1.42l.67-1.43c.22-.48.46-1,.67-1.44l.6-1.46.6-1.46.3-.73c.11-.25.18-.5.28-.75l1.05-3,.13-.38.12-.37.22-.76.45-1.51.45-1.51.37-1.54.37-1.53c.12-.51.26-1,.34-1.53l.58-3.1c0-.25.1-.51.14-.77l.11-.78.21-1.56.21-1.55c0-.26.06-.52.08-.78l.06-.79.25-3.12L183,109l-.11.77q0,.39-.12.78l-.3,1.53-.3,1.54-.14.76c-.06.26-.13.51-.19.76l-.74,3c-.12.51-.28,1-.43,1.5l-.44,1.49-.44,1.5-.52,1.47-.52,1.47-.25.73c0,.12-.09.25-.14.37l-.14.36L177,130c-.1.24-.18.48-.3.72l-.32.7-.66,1.41-.66,1.41c-.23.46-.48.92-.71,1.37l-.73,1.38c-.24.45-.46.92-.74,1.36L171.3,141c-.25.45-.55.88-.83,1.31l-.85,1.3-.84,1.29-.91,1.26-.91,1.25-.46.62c-.14.21-.32.41-.47.61L164.09,151a92.17,92.17,0,0,1-8.56,8.89,94.25,94.25,0,0,1-9.73,7.53l-2.6,1.65-.64.41-.67.38-1.34.76-1.33.76c-.45.25-.91.47-1.37.7l-1.36.7-.69.35-.34.17-.35.16-2.8,1.26c-.46.22-.94.39-1.42.58l-1.42.56-1.43.56-1.45.49-1.45.49c-.49.17-1,.34-1.46.47l-3,.84-.36.11-.38.08-.74.18-1.49.35-1.49.34-1.51.27-1.5.27-.76.14c-.25.05-.5.07-.75.11l-3,.4c-.5.08-1,.1-1.52.15l-1.52.12-1.52.13-1.53.05-1.53,0-.76,0h-.76l-3.06-.06-.76,0-.76-.05-1.53-.1c-2-.1-4-.4-6.07-.62-1-.15-2-.34-3-.5-.5-.09-1-.17-1.5-.27l-1.49-.33-1.49-.33c-.5-.11-1-.21-1.48-.36l-2.94-.81A83.05,83.05,0,0,1,27.89,55.47l1.62-2.59c.26-.43.56-.84.85-1.26l.88-1.25.87-1.25c.3-.41.63-.8.94-1.21.62-.8,1.24-1.61,1.88-2.4C36.27,44,37.56,42.4,39,41l1-1.11.53-.55.56-.53,2.21-2.1.28-.26.29-.25.58-.5,1.16-1,1.16-1L48,32.74l1.21-.94c.4-.31.79-.63,1.22-.91L53,29.14c.21-.15.41-.31.63-.44l.64-.4,1.3-.82,1.29-.81c.44-.26.89-.5,1.33-.75l1.34-.75.67-.38.33-.19.34-.17,2.74-1.36c.46-.24.93-.44,1.39-.64l1.41-.62,1.4-.61,1.43-.56,1.43-.55c.48-.18,1-.37,1.44-.52l2.92-1a91.76,91.76,0,0,1,12-2.76,93,93,0,0,1,12.26-1,92.18,92.18,0,0,1,12.31.78l3.06.47c.25,0,.51.07.76.13l.76.15,1.51.31,1.52.31,1.5.39,1.5.38c.5.13,1,.25,1.5.41l3,.91c.5.14,1,.33,1.47.5l1.46.53,1.45.53,1.44.6,1.43.59.72.3c.24.1.47.22.71.33l2.81,1.33.35.17a3.65,3.65,0,0,1,.34.18l.69.37,1.37.73,1.37.74,1.34.8,1.34.8c.44.28.9.53,1.32.83l2.6,1.73.65.44.63.46,1.25.94,1.26.93c.21.15.41.32.61.49l.6.49,2.43,2-2.29-2.14Z"/><path class="cls-1" d="M187.54,134a96.58,96.58,0,0,1-35.28,42.58c-1.93,1.29-3.92,2.5-5.94,3.65s-4.08,2.21-6.18,3.22a95.63,95.63,0,0,1-13,5,92.4,92.4,0,0,1-13.54,3.07,94.2,94.2,0,0,1-13.83,1.07,95.78,95.78,0,0,1-27.35-3.89A94.72,94.72,0,0,1,5.53,111q-.15-1.12-.27-2.25A94.92,94.92,0,0,1,92.94,4.24a93.33,93.33,0,0,1,13.89,0,96.89,96.89,0,0,1,13.75,2.07c2.26.52,4.51,1.11,6.73,1.79s4.42,1.43,6.59,2.27a96.54,96.54,0,0,1,43.73,33.83,99,99,0,0,1,13,25c-.66-2.27-1.39-4.52-2.21-6.75-.2-.56-.43-1.1-.64-1.66l-.32-.83c-.11-.27-.23-.54-.34-.82l-.69-1.64-.73-1.63a94.93,94.93,0,0,0-26-33.74c-1.85-1.51-3.75-3-5.71-4.36s-4-2.69-6-3.94-4.17-2.39-6.31-3.48-4.33-2.07-6.55-3-4.48-1.76-6.76-2.52-4.6-1.41-6.94-2A96.72,96.72,0,0,0,92.69.14,97.93,97.93,0,0,0,28,29.39,98.43,98.43,0,0,0,1.62,80.3,97.63,97.63,0,0,0,.43,107.12c0,.69.12,1.38.19,2.07a97.68,97.68,0,0,0,7.27,28.05,98.35,98.35,0,0,0,36.9,43.9,97.67,97.67,0,0,0,26.38,12,98.73,98.73,0,0,0,28.69,3.74,96.92,96.92,0,0,0,28.48-4.79,96,96,0,0,0,13.36-5.5c2.15-1.09,4.27-2.23,6.33-3.47s4.08-2.55,6.05-3.94a97,97,0,0,0,20.76-19.8,95.92,95.92,0,0,0,14-24.91,94.93,94.93,0,0,0,4-13.69l.35-1.74.31-1.75c.05-.3.11-.59.16-.88l.13-.88c.08-.59.18-1.17.26-1.76.32-2.35.53-4.71.68-7.07A98.74,98.74,0,0,1,187.54,134Z"/><path class="cls-1" d="M102.75,23.42c-.23,0-.45-.05-.68-.05l-1.38-.08-1.37-.07-.69,0H95.18c-.46,0-.92,0-1.38,0l-1.38.07L91,23.36l-1.38.14-1.38.14c-.45.05-.92.08-1.37.16l-2.74.43c-.23,0-.46.06-.68.11l-.68.14-1.36.28L80.09,25l-1.34.35-1.35.35c-.44.12-.9.22-1.34.37l-2.65.83c-.45.13-.88.3-1.32.46l-1.3.48-1.31.49-1.28.55-1.28.54c-.43.19-.86.37-1.27.58l-2.51,1.22a81,81,0,0,0-9.54,5.81A84,84,0,0,0,45,44.25a81.56,81.56,0,0,0-7.45,8.41L35.9,54.92c-.28.38-.53.77-.79,1.17l-.78,1.17-.77,1.18-.72,1.21-.71,1.21c-.24.41-.49.81-.7,1.23l-1.31,2.49L30,64.9l-.15.31-.3.64-.59,1.28c-.19.43-.4.86-.59,1.29l-.53,1.3L27.27,71c-.17.44-.35.87-.5,1.32L25.85,75c-.17.44-.28.9-.42,1.35L25,77.72l-.39,1.36-.33,1.37L24,81.83l-.17.69-.08.34-.06.35L23.18,86l-.13.69-.09.7-.19,1.4c-.29,1.87-.38,3.75-.53,5.63,0,.94-.06,1.88-.09,2.83,0,.47,0,.94,0,1.41l0,1.42,0,1.41c0,.47,0,1,.06,1.42l.21,2.82c0,.47.09.94.15,1.41l.17,1.4.18,1.41c.07.47.16.93.24,1.39l.25,1.4.13.7.06.35.08.34.64,2.76c.05.23.09.47.16.69l.19.68.39,1.37.39,1.36c.14.45.29.9.44,1.35l.46,1.34c.15.45.29.9.47,1.34l1,2.64c.16.44.37.87.56,1.3l.59,1.29c.19.43.38.86.58,1.29l.65,1.26.64,1.27.33.63c.11.21.23.41.35.62L33,137.77A84.91,84.91,0,0,0,39.53,147a85.32,85.32,0,0,0,7.84,8.18l2.14,1.86.54.46.56.43,1.12.88,1.11.87,1.16.83,1.15.82c.39.27.77.55,1.17.8l2.4,1.52c.39.26.81.48,1.22.72l1.23.7,1.23.69,1.27.64,1.26.64.64.32c.21.11.43.2.64.3l2.59,1.15.32.14.33.13.66.26,1.33.51,1.32.51,1.34.44,1.35.44c.45.15.9.3,1.35.42l2.74.74c.45.14.91.23,1.37.33l1.38.31,1.39.3c.46.09.93.16,1.39.24.93.15,1.86.32,2.79.46,1.88.21,3.74.48,5.63.55l1.41.09.7,0h.71l2.83,0h.7l.71,0,1.41-.05,1.41-.06,1.41-.13,1.4-.12c.47,0,.94-.08,1.41-.15l2.79-.4c.47-.06.93-.15,1.39-.24l1.39-.27,1.38-.27c.46-.1.91-.22,1.37-.33l1.37-.34.68-.17.35-.08.33-.1,2.7-.81c.46-.13.9-.29,1.34-.45l1.33-.46,1.33-.48,1.3-.53,1.3-.54c.43-.18.87-.35,1.29-.55l2.55-1.2a80.13,80.13,0,0,0,9.67-5.7,82.93,82.93,0,0,0,8.69-7.06,80.39,80.39,0,0,0,7.53-8.24l1.68-2.23c.29-.37.55-.76.81-1.14l.78-1.15.78-1.16.73-1.18.72-1.19c.24-.4.49-.79.7-1.2l1.33-2.45c.23-.4.42-.83.62-1.24l.6-1.26c.2-.41.41-.83.6-1.25l.54-1.28.53-1.28.27-.64c.09-.21.16-.43.24-.65l.94-2.6c.17-.43.29-.88.43-1.32l.4-1.33.4-1.32.33-1.34.34-1.34c.1-.45.23-.89.31-1.35l.52-2.71c0-.22.09-.45.13-.67l.09-.69.19-1.36.2-1.37c0-.22.05-.45.07-.68L173,108l.24-2.73A84.74,84.74,0,0,1,171,116c-.1.44-.25.87-.39,1.31l-.4,1.3-.41,1.3-.47,1.28-.47,1.28c-.16.43-.3.86-.48,1.28l-1.07,2.51c-.09.2-.17.42-.27.62l-.29.61-.59,1.23-.59,1.22c-.21.4-.43.8-.65,1.2l-.64,1.19c-.22.4-.42.8-.67,1.19l-1.4,2.32a79.43,79.43,0,0,1-6.42,8.71,80.71,80.71,0,0,1-7.58,7.67,82.88,82.88,0,0,1-8.58,6.49l-2.29,1.41-.57.35-.59.32-1.17.66-1.18.65c-.39.21-.8.4-1.2.6l-1.2.59c-.4.19-.79.41-1.21.58l-2.46,1.07c-.4.19-.82.34-1.24.5l-1.25.47-1.25.47-1.28.42-1.27.41c-.42.14-.85.29-1.28.4l-2.58.7-.32.09-.33.07-.65.15-1.3.29-1.31.28-1.32.23-1.31.22c-.44.08-.88.16-1.32.2l-2.66.32c-.44.06-.88.08-1.32.11l-1.34.1-1.33.09-1.33,0-1.33,0H99.13l-2.66-.08-.67,0-.67,0-1.32-.11c-1.78-.1-3.54-.38-5.3-.6-.88-.14-1.75-.31-2.62-.46-.44-.08-.88-.15-1.31-.25l-1.3-.3-1.3-.3c-.43-.1-.86-.2-1.29-.33l-2.55-.73a73,73,0,0,1-51.06-62l-.23-2.65c-.05-.44-.06-.89-.07-1.33L26.73,100l-.05-1.33c0-.44,0-.89,0-1.33,0-.89,0-1.78,0-2.66.13-1.78.2-3.55.43-5.32L27.31,88c0-.22.05-.44.08-.66l.11-.66L27.93,84l.05-.33.07-.33.15-.65.28-1.3.28-1.31.35-1.28.35-1.29c.12-.43.22-.87.36-1.29l.83-2.54c.12-.42.29-.84.44-1.25l.48-1.25L32,70c.17-.41.35-.82.53-1.23l.53-1.23.27-.61.13-.3.15-.3,1.19-2.4c.19-.4.41-.79.63-1.18l.65-1.17.65-1.17.7-1.14.71-1.13c.23-.38.46-.77.72-1.13l1.52-2.21a82,82,0,0,1,6.87-8.24,74.81,74.81,0,0,1,17-13.15,78,78,0,0,1,9.78-4.63l2.55-.94c.42-.17.85-.28,1.28-.42l1.3-.41c.43-.13.86-.28,1.3-.4l1.31-.35,1.32-.34.66-.18c.21-.06.44-.09.66-.14L87.1,25c.45-.11.9-.16,1.35-.24l1.34-.21,1.35-.22,1.36-.15L93.85,24c.46,0,.91-.11,1.37-.13a85.08,85.08,0,0,1,11-.12l-2.73-.3Z"/><path class="cls-1" d="M158,120.3a66.81,66.81,0,0,1-3.47,7,65.51,65.51,0,0,1-4.28,6.49,63.79,63.79,0,0,1-23.69,19.37,61.44,61.44,0,0,1-7.12,2.85,63.54,63.54,0,0,1-7.4,2,62.3,62.3,0,0,1-7.57,1,60.72,60.72,0,0,1-7.63.1,62.28,62.28,0,0,1-7.58-.82,60.75,60.75,0,0,1-7.41-1.72,62.23,62.23,0,0,1-7.14-2.62A61.54,61.54,0,0,1,68,150.47c-1.09-.64-2.15-1.33-3.2-2s-2.07-1.45-3.07-2.23a60.37,60.37,0,0,1-5.71-5,62.32,62.32,0,0,1-15.63-25.71,61.45,61.45,0,0,1-2.68-14.92,60.38,60.38,0,0,1,0-7.61c.08-1.27.22-2.54.35-3.81s.32-2.53.53-3.79A69.21,69.21,0,0,1,42.75,70.6a64.71,64.71,0,0,1,7.43-13.51,51.5,51.5,0,0,1,5-6A37.83,37.83,0,0,1,58,48.46a22.36,22.36,0,0,1,3.21-2.26A20.36,20.36,0,0,0,57.67,48a33.73,33.73,0,0,0-3.27,2.3c-1,.84-2,1.72-3,2.65s-1.9,1.89-2.79,2.9a60,60,0,0,0-8.93,13.4,65.59,65.59,0,0,0-5.25,15.34c-.28,1.32-.52,2.66-.72,4l-.15,1-.12,1c-.08.67-.14,1.35-.2,2A65.67,65.67,0,0,0,58.73,150c1.08.84,2.2,1.62,3.33,2.39s2.29,1.49,3.48,2.17a65.32,65.32,0,0,0,31.15,8.83,64.47,64.47,0,0,0,31.41-7.18c1.21-.62,2.38-1.29,3.55-2s2.29-1.43,3.4-2.2a63.65,63.65,0,0,0,6.36-5,66.65,66.65,0,0,0,5.67-5.73,63.42,63.42,0,0,0,8.92-13.3c.29-.6.59-1.19.86-1.8l.42-.91.39-.92.19-.46.19-.46.37-.93c.23-.62.47-1.25.68-1.87s.44-1.26.63-1.9c.1-.31.2-.63.29-.95l.27-1,.14-.48.12-.48.25-1c.15-.64.3-1.29.43-1.94a61.28,61.28,0,0,0,1.13-7.83,70.58,70.58,0,0,1-1.73,7.68A66.3,66.3,0,0,1,158,120.3Z"/><path class="cls-1" d="M90.16,147.68a51.86,51.86,0,0,1-8.8-2.32,53.84,53.84,0,0,1-8.28-3.8l-1-.57-1-.61c-.66-.39-1.28-.83-1.92-1.25l-.47-.32-.47-.34-.92-.67c-.32-.22-.61-.47-.91-.71l-.9-.71a55.82,55.82,0,0,1-12.1-13.9,59,59,0,0,1-4.21-8.37,61.8,61.8,0,0,1-2.85-9,48,48,0,0,0,1.57,9.48,51.07,51.07,0,0,0,3.39,9.09A53.1,53.1,0,0,0,63,139.28l.92.82c.31.27.61.55.94.8l1,.79.48.39.49.37c.66.5,1.32,1,2,1.45l1,.7,1.05.66a53.69,53.69,0,0,0,8.87,4.45c.77.29,1.55.57,2.34.85s1.58.5,2.37.73l1.21.32c.4.11.8.22,1.2.31l1.22.27.6.13.62.11a54.72,54.72,0,0,0,9.9,1,55.76,55.76,0,0,0,9.91-.89,54.69,54.69,0,0,0,9.58-2.68,53.26,53.26,0,0,0,8.89-4.4c1.4-.88,2.78-1.79,4.09-2.79.67-.48,1.3-1,1.94-1.54.32-.26.64-.51.95-.79l.92-.82a52.45,52.45,0,0,0,11.79-15.57,50.05,50.05,0,0,0,5-18.55,63,63,0,0,1-2.91,9,55.94,55.94,0,0,1-4.24,8.35A54.83,54.83,0,0,1,133,136.55a53.18,53.18,0,0,1-24.7,11.19,52.81,52.81,0,0,1-9,.75A52.08,52.08,0,0,1,90.16,147.68Z"/></g></g></svg>