<svg xmlns="http://www.w3.org/2000/svg" viewBox="0 0 204.42 205.26"><defs><style>.cls-1{fill:#1c8fcf;}</style></defs><title>Ресурс 1</title><g id="Слой_2" data-name="Слой 2"><g id="Слой_1-2" data-name="Слой 1"><path class="cls-1" d="M162.23,32.31c-.2-.18-.41-.37-.63-.54l-1.29-1.06L159,29.65l-.65-.52c-.22-.18-.45-.34-.67-.5l-2.7-2c-.44-.34-.92-.62-1.38-.94l-1.4-.91-1.4-.92L149.38,23l-1.44-.85-.72-.43-.37-.21-.37-.19-3-1.55c-.25-.13-.49-.27-.74-.38l-.77-.35-1.52-.7L139,17.65,137.4,17l-1.56-.62c-.52-.21-1-.44-1.56-.6l-3.18-1.1c-.53-.19-1.07-.33-1.6-.49l-1.62-.47-1.61-.47-1.64-.39L123,12.51l-.82-.2c-.27-.07-.55-.11-.82-.16l-3.31-.62a98.58,98.58,0,0,0-13.4-1.22,102.52,102.52,0,0,0-13.45.77A96.26,96.26,0,0,0,78,13.84l-3.23,1c-.54.16-1.06.36-1.59.55L71.58,16,70,16.53l-1.56.65-1.56.65c-.52.22-1,.43-1.55.69l-3,1.45-.38.18-.37.2-.75.4-1.49.81-1.48.8-1.45.88-1.45.87-.72.44c-.25.14-.47.31-.71.47l-2.8,1.89c-.48.31-.92.67-1.37,1l-1.35,1L46.6,30,45.3,31,44,32.12l-.65.54-.33.27-.31.29-2.48,2.3-.63.57L39,36.7l-1.18,1.21c-1.62,1.58-3.06,3.32-4.56,5-.72.87-1.41,1.76-2.12,2.64-.35.45-.71.88-1,1.34l-1,1.37-1,1.38c-.32.46-.66.92-1,1.4L25.34,53.9c-.31.47-.58,1-.87,1.46l-.84,1.47-.84,1.47L22,59.81l-.77,1.52-.38.75-.19.38-.17.39L19.13,66c-.11.26-.24.51-.34.78l-.31.79-.61,1.58-.61,1.58c-.19.53-.36,1.07-.54,1.61l-.54,1.61c-.17.54-.37,1.07-.51,1.61l-.91,3.27c-.16.54-.27,1.1-.4,1.65L14,82.09c-.13.55-.26,1.1-.37,1.65l-.3,1.67L13,87.08l-.15.84c0,.28-.07.56-.11.84l-.43,3.37a103.89,103.89,0,0,0-.44,13.55,103.31,103.31,0,0,0,1.58,13.47l.34,1.61.07.36.08.42.1.41,0,.13.08.39c.07.27.12.55.19.82l.21.82.16.6.13.53c.07.28.12.56.21.83l.19.64.18.69c.12.42.26.83.39,1.25l.44,1.48c.12.38.25.75.38,1.12s.22.67.35,1l.06.16.32.94c.19.53.36,1.07.59,1.59l1.27,3.14c.2.53.45,1,.69,1.55l.71,1.54.72,1.54.79,1.5.79,1.5.39.76.43.73,1.71,2.93a104.32,104.32,0,0,0,7.93,11,102.13,102.13,0,0,0,9.48,9.7l2.58,2.2c.22.18.43.37.65.54l.67.52,1.35,1,1.34,1,1.39,1,1.4,1c.46.32.92.65,1.4.94l2.88,1.8c.48.31,1,.57,1.47.85l1.48.83,1.49.82,1.52.75,1.51.75.76.38c.26.13.52.23.78.35l3.11,1.35.39.17.39.15.8.3,1.58.6,1.59.6,1.62.51,1.61.52c.54.17,1.07.35,1.62.49l3.28.87c.54.16,1.1.26,1.65.38l1.66.35,1.66.36c.55.1,1.11.18,1.67.27,1.11.18,2.23.37,3.34.53,2.25.23,4.49.54,6.75.62l1.69.09c.28,0,.56,0,.85,0h.84l3.39,0h.42l.43,0,.84,0,1.69-.07,1.69-.08,1.69-.16,1.68-.16c.56-.06,1.13-.09,1.69-.19l3.34-.49c.28-.05.56-.07.84-.13l.83-.17,1.66-.33,1.66-.33,1.64-.41,1.64-.41.82-.21.41-.1.4-.13,3.24-1c.54-.16,1.07-.35,1.6-.54l1.59-.57,1.59-.58,1.56-.64,1.56-.65c.52-.22,1.05-.42,1.55-.67l3-1.45a96.83,96.83,0,0,0,11.61-6.88,102.55,102.55,0,0,0,10.44-8.51,98.07,98.07,0,0,0,9.07-9.94l2-2.69c.17-.22.34-.44.5-.67l.47-.7.95-1.39.94-1.39.87-1.43.88-1.44c.29-.48.59-1,.85-1.45l1.61-2.94c.28-.49.5-1,.75-1.5l.73-1.51c.24-.51.49-1,.72-1.52l.65-1.54.65-1.55.33-.77c.11-.26.2-.52.29-.79l1.15-3.14.14-.4c.05-.13.09-.26.13-.4l.24-.8.5-1.6.49-1.6.41-1.62.41-1.62c.13-.54.29-1.08.39-1.63l.65-3.28c.05-.27.11-.55.16-.82l.12-.83.24-1.65.24-1.65c.05-.28.07-.55.1-.83l.08-.83.3-3.33-.43,3.31-.11.83c0,.27-.07.55-.12.82l-.3,1.64-.3,1.64-.15.82c-.05.27-.12.54-.18.81l-.76,3.24c-.11.54-.29,1.07-.43,1.61L191,126l-.46,1.6-.53,1.57-.53,1.57-.27.79-.14.39-.15.39-1.23,3.08c-.1.26-.19.52-.31.77l-.34.76-.69,1.51-.69,1.51c-.24.49-.5,1-.75,1.48l-.76,1.47c-.26.49-.49,1-.78,1.46l-1.65,2.88c-.27.48-.58.94-.87,1.4L180,150l-.9,1.39-1,1.35-1,1.34-.48.68c-.16.22-.34.43-.51.65l-2,2.6a90.5,90.5,0,0,1-43.17,29.06l-3.16.91-.39.12-.4.1-.8.19-1.6.37-1.6.38-1.62.3-1.62.3-.8.15c-.27.05-.55.08-.82.12l-3.26.44c-.54.08-1.08.11-1.63.16l-1.64.14-1.63.14-1.65.06-1.64.06-.82,0H105l-3.28,0-.83,0-.82-.05-1.63-.11c-2.19-.09-4.36-.41-6.54-.64-1.08-.16-2.16-.36-3.24-.54l-1.62-.27-1.6-.36-1.6-.35c-.54-.12-1.07-.23-1.6-.38l-3.16-.87c-.53-.13-1-.31-1.57-.48L76,186.41l-1.56-.51-1.53-.58-1.53-.59-.77-.29-.38-.15-.38-.17-3-1.32c-.25-.11-.5-.21-.74-.34l-.74-.36-1.46-.74-1.47-.73-1.43-.8L59.55,179c-.47-.27-1-.52-1.41-.82l-2.78-1.75a94.57,94.57,0,0,1-10.41-8,90,90,0,0,1-16.82-20l-1.66-2.82c-.14-.24-.28-.47-.41-.71l-.38-.73-.77-1.45-.76-1.45c-.24-.49-.46-1-.7-1.48l-.69-1.49-.25-.54c-.07-.16-.14-.32-.2-.48l-.64-1.5-.57-1.39s0-.09-.05-.14l-1.13-3.08a97.11,97.11,0,0,1-3.39-12.65,100.21,100.21,0,0,1-1.5-13,98.77,98.77,0,0,1,.41-13.1l.41-3.25c0-.27.06-.55.1-.82l.14-.8L16.38,86l.28-1.61c.11-.54.23-1.07.35-1.6l.36-1.6c.13-.54.23-1.07.38-1.6l.87-3.16c.14-.53.32-1,.49-1.56l.51-1.56.51-1.56.59-1.53.59-1.53.29-.77c.1-.25.22-.5.32-.75l1.33-3,.16-.38.18-.36.37-.74.74-1.46c.24-.49.48-1,.73-1.47l.81-1.43.81-1.42c.27-.48.52-1,.83-1.42l1.75-2.77c.28-.47.6-.91.92-1.36L31.49,50l.95-1.34c.32-.45.67-.87,1-1.3.68-.86,1.34-1.73,2-2.58,1.45-1.65,2.84-3.34,4.39-4.89L41,38.68l.57-.59.59-.56,2.39-2.25.3-.29.32-.26.62-.53L47,33.13l1.25-1.06,1.3-1,1.31-1c.43-.33.86-.68,1.32-1l2.7-1.87c.22-.15.44-.32.68-.46l.69-.44,1.4-.87,1.39-.87,1.44-.8L62,23l.72-.4.36-.2.37-.18,2.95-1.46a90.53,90.53,0,0,1,51.47-7.68l3.26.53c.27,0,.55.08.82.14l.81.17,1.61.34,1.62.35,1.61.42,1.6.42c.53.14,1.07.27,1.59.45l3.16,1c.53.16,1,.37,1.56.56L137,18l1.55.58,1.52.65,1.53.65.77.32c.25.11.5.24.75.36l3,1.45.38.18.36.2.73.4,1.46.8,1.45.8,1.42.87,1.41.87c.47.3,1,.57,1.41.9l2.75,1.88c.22.15.46.3.68.47l.66.5,1.33,1,1.32,1c.23.17.44.35.65.53l.64.53,2.55,2.15-2.47-2.25Z"/><path class="cls-1" d="M108.4,21.91l-.73-.05-1.46-.06-1.47-.05-.73,0h-.73l-2.93,0c-.49,0-1,0-1.47.07l-1.46.09L96,22l-1.45.16L93,22.34c-.49.06-1,.09-1.46.19l-2.9.47-.72.13-.72.16-1.44.31-1.43.31-1.43.38-1.42.39c-.47.13-1,.24-1.41.41l-2.8.91c-.47.14-.93.32-1.39.5L74.55,27l-1.38.52-1.35.59-1.35.59c-.45.2-.91.39-1.34.62l-2.65,1.31a87.25,87.25,0,0,0-10,6.23,88.62,88.62,0,0,0-9,7.64,84.75,84.75,0,0,0-7.8,8.91l-1.74,2.4c-.29.4-.55.82-.83,1.23l-.81,1.24-.8,1.25-.75,1.28L34,62.11c-.25.43-.51.85-.72,1.3L31.86,66l-.18.33-.15.34-.31.67-.62,1.35c-.21.45-.42.9-.62,1.35l-.55,1.38-.55,1.38c-.19.46-.37.92-.53,1.39l-1,2.81c-.17.47-.29.95-.43,1.42l-.41,1.43-.41,1.43-.33,1.45-.34,1.45-.17.72-.08.36-.07.37-.53,2.93-.13.73-.09.74-.19,1.47c-.3,2-.39,3.95-.55,5.92,0,1-.05,2-.08,3,0,.49,0,1,0,1.49l0,1.48,0,1.49c0,.5,0,1,.06,1.49l.23,3c0,.49.1,1,.16,1.48l.19,1.48.19,1.47c.08.49.17,1,.26,1.47l.26,1.47.14.73.06.36.09.37.67,2.9c.06.24.1.49.17.72l.21.72.41,1.43.4,1.44.48,1.41.47,1.41c.17.47.31.95.5,1.4l1.09,2.78c.17.46.39.91.59,1.37l.62,1.35c.2.45.4.91.62,1.36l.67,1.33.68,1.32.34.67c.12.22.25.43.37.64L35,143a90.29,90.29,0,0,0,6.87,9.73,89.26,89.26,0,0,0,8.24,8.6l2.25,2,.57.48.58.46,1.18.92,1.17.92,1.21.87,1.22.86c.4.28.8.58,1.23.84l2.51,1.6c.41.28.85.51,1.28.76l1.29.74,1.3.73,1.33.68,1.33.67.66.34.68.31,2.72,1.21.34.16.35.13.69.27,1.39.54c.46.18.92.37,1.39.54l1.41.47,1.42.46c.47.16.94.32,1.42.45l2.87.79c.47.14,1,.24,1.44.35l1.46.32,1.45.32c.49.1,1,.17,1.47.26,1,.16,1.95.34,2.93.49,2,.22,3.94.51,5.92.59l1.48.1.74.05h.75l3,0h.37l.37,0,.75,0,1.48-.05,1.49-.06,1.48-.13,1.48-.12c.49,0,1-.08,1.48-.15l2.94-.41c.49-.06,1-.16,1.47-.25l1.46-.28,1.46-.28c.48-.1,1-.23,1.44-.34l1.44-.35.72-.17.36-.09.36-.11,2.85-.84c.48-.13.94-.3,1.41-.46l1.4-.49,1.4-.49,1.38-.55,1.37-.56c.46-.19.92-.36,1.36-.58L139,174a84.12,84.12,0,0,0,10.23-5.95,86.34,86.34,0,0,0,9.23-7.39,85.24,85.24,0,0,0,8-8.65l1.8-2.34c.3-.39.58-.79.86-1.2l.84-1.21.83-1.21.78-1.26.78-1.25c.26-.42.52-.83.75-1.26l1.44-2.58c.24-.42.44-.87.66-1.31l.66-1.32c.21-.44.43-.87.64-1.32l.59-1.35.58-1.35.29-.67c.1-.23.17-.46.26-.69l1-2.75c.19-.46.31-.93.47-1.4l.44-1.4.44-1.4.37-1.42.38-1.42c.12-.47.26-.94.35-1.42l.59-2.87c0-.24.1-.48.14-.72l.11-.72.22-1.45.23-1.45c0-.24.06-.48.09-.72l.07-.73.29-2.91-.42,2.89-.1.73q0,.36-.12.72l-.27,1.43-.28,1.43-.14.72c0,.24-.12.47-.17.71l-.7,2.83c-.11.47-.26.93-.4,1.4l-.41,1.4-.42,1.39-.48,1.37-.49,1.38c-.17.45-.31.92-.5,1.36l-1.11,2.69c-.09.22-.18.45-.28.67l-.31.66-.62,1.31-.61,1.32c-.22.43-.45.86-.68,1.29l-.68,1.28c-.23.42-.44.86-.69,1.27l-1.48,2.5c-.24.42-.51.82-.78,1.22l-.8,1.21-.8,1.21-.85,1.17-.86,1.17c-.28.39-.57.78-.88,1.15l-1.82,2.25a79.21,79.21,0,0,1-38,25l-2.78.78-.34.09-.35.08-.7.16-1.41.32-1.4.31-1.42.25-1.41.24c-.48.09-1,.17-1.42.22l-2.86.36c-.47.07-1,.09-1.43.13l-1.43.1-1.43.11-1.44,0-1.44,0-.71,0h-.72l-2.87-.07-.72,0-.72-.05-1.43-.11c-1.91-.11-3.81-.4-5.71-.63-.94-.15-1.88-.33-2.82-.49-.47-.09-1-.16-1.42-.26l-1.39-.33-1.4-.32c-.47-.11-.94-.21-1.39-.35l-2.76-.78c-.46-.12-.91-.29-1.37-.44L79.19,175l-1.35-.46L76.5,174l-1.33-.53-.67-.26-.33-.13-.33-.15-2.61-1.18c-.22-.1-.44-.19-.65-.3l-.64-.33-1.27-.66-1.28-.65c-.42-.23-.83-.48-1.24-.72l-1.24-.71c-.41-.24-.84-.47-1.23-.74l-2.41-1.55a83.14,83.14,0,0,1-9-7,87.2,87.2,0,0,1-7.91-8.29,78.31,78.31,0,0,1-17.46-41.7l-.24-2.86c-.05-.48-.06-1-.07-1.44l0-1.43-.05-1.43c0-.48,0-1,0-1.44,0-1,0-1.91.05-2.87.14-1.91.22-3.82.48-5.72l.17-1.43c0-.23.05-.47.08-.71l.12-.71.48-2.83.06-.35L28,85.5l.15-.71.31-1.4.31-1.4.38-1.39.38-1.38c.13-.46.24-.93.4-1.38l.9-2.73c.14-.46.31-.91.49-1.35l.51-1.35.51-1.34.58-1.32.58-1.31.29-.66.14-.33.16-.32,1.29-2.58A79.32,79.32,0,0,1,67.21,32l2.56-1.35c.42-.24.86-.44,1.3-.64l1.31-.62,1.31-.62L75,28.22l1.34-.55c.45-.19.89-.38,1.35-.53l2.73-1c.46-.17.93-.29,1.39-.43l1.39-.42c.46-.14.92-.29,1.39-.42L86,24.54l1.41-.36.7-.17c.24-.07.48-.1.71-.15l2.85-.57c.48-.11,1-.16,1.44-.24l1.44-.21L96,22.63l1.45-.14,1.45-.15c.48,0,1-.1,1.45-.12l2.91-.14.73,0h3.65l.73,0,.73,0,2.92.14L109.13,22Z"/><path class="cls-1" d="M167.45,125.06A67.57,67.57,0,0,1,148,151.66a68,68,0,0,1-13.89,8.94,66.67,66.67,0,0,1-15.6,5.29,67.36,67.36,0,0,1-16.39,1.31,66.1,66.1,0,0,1-8.19-.86,64.91,64.91,0,0,1-8-1.83,65.9,65.9,0,0,1-7.72-2.81A64.42,64.42,0,0,1,70.86,158c-1.19-.69-2.33-1.44-3.47-2.2s-2.25-1.57-3.32-2.41A63.64,63.64,0,0,1,57.89,148a67.54,67.54,0,0,1-10.16-12.86A66.59,66.59,0,0,1,41,120.15,66.54,66.54,0,0,1,38.14,104a64.41,64.41,0,0,1,.08-8.22c.21-2.74.52-5.48,1-8.19a71.21,71.21,0,0,1,4.66-15.81,66.47,66.47,0,0,1,3.66-7.43c.69-1.2,1.42-2.38,2.17-3.54s1.56-2.29,2.39-3.4,1.71-2.19,2.62-3.23,1.86-2.07,2.86-3,2-1.88,3.14-2.75a24.19,24.19,0,0,1,3.49-2.3,22.56,22.56,0,0,0-3.72,2,37.78,37.78,0,0,0-3.39,2.53C56,51.53,55,52.49,54,53.49s-1.95,2-2.87,3.12-1.81,2.19-2.65,3.33S46.81,62.25,46,63.45a67.55,67.55,0,0,0-4.13,7.45,71.15,71.15,0,0,0-3.16,7.93,69.47,69.47,0,0,0-2.2,8.27c-.28,1.4-.52,2.81-.73,4.22l-.14,1.05-.12,1.07c-.09.71-.15,1.42-.21,2.13a70.18,70.18,0,0,0-.16,8.58,68.76,68.76,0,0,0,9.88,32.56A72.72,72.72,0,0,0,50,143.77a71,71,0,0,0,5.74,6.4,68.17,68.17,0,0,0,6.48,5.64c1.13.88,2.3,1.7,3.48,2.51s2.41,1.57,3.65,2.28a68.54,68.54,0,0,0,15.76,6.73,68.71,68.71,0,0,0,50-4.76c1.27-.64,2.51-1.33,3.74-2s2.43-1.49,3.6-2.29a66.86,66.86,0,0,0,6.74-5.21,71.25,71.25,0,0,0,6.05-6,68.65,68.65,0,0,0,5.22-6.69,66.77,66.77,0,0,0,11.44-31.43,73.4,73.4,0,0,1-1.72,8.21A68.44,68.44,0,0,1,167.45,125.06Z"/><path class="cls-1" d="M94.82,155.13a57,57,0,0,1-9.53-2.55,57.86,57.86,0,0,1-9-4.19,59,59,0,0,1-8.11-5.68,58.27,58.27,0,0,1-7-7,56.69,56.69,0,0,1-5.76-8.14,60.49,60.49,0,0,1-7.07-18.78,55,55,0,0,0,5.72,19.51A57.16,57.16,0,0,0,125,155.46a54.85,54.85,0,0,0,9.34-4.55c1.47-.9,2.93-1.85,4.31-2.88.71-.5,1.38-1.05,2.05-1.59.34-.27.68-.53,1-.82l1-.86a56.42,56.42,0,0,0,12.64-16.19,55.43,55.43,0,0,0,5.81-19.49A61,61,0,0,1,154,127.82a54.16,54.16,0,0,1-5.81,8.11l-.4.48-.42.46-.84.92c-.54.62-1.15,1.19-1.73,1.78-.3.29-.58.59-.89.87l-.92.83-.92.83-1,.8A57.25,57.25,0,0,1,124,152.68a56.65,56.65,0,0,1-29.17,2.45Z"/><path class="cls-1" d="M204,114.51c-.09.61-.16,1.23-.27,1.85l-.3,1.84c-.1.62-.23,1.23-.34,1.84l-.18.92c-.06.3-.13.61-.19.91l-.4,1.83-.44,1.81a101.7,101.7,0,0,1-68.23,72.43,100.62,100.62,0,0,1-130-84.51c-.12-1.11-.23-2.23-.32-3.35a100.61,100.61,0,0,1,50-94A101.27,101.27,0,0,1,80.65,5.23,99.78,99.78,0,0,1,95.22,2.9,98.41,98.41,0,0,1,110,2.72,101.66,101.66,0,0,1,193.5,56.81l.86,1.66.82,1.68c.14.28.28.56.41.84l.39.85c.25.57.52,1.13.77,1.7l.73,1.72c.25.57.47,1.16.7,1.73.48,1.16.89,2.34,1.33,3.5-.77-2.37-1.6-4.73-2.54-7-.22-.59-.48-1.16-.72-1.73l-.36-.87c-.12-.29-.25-.57-.38-.85l-.77-1.71-.82-1.69a100.62,100.62,0,0,0-28.19-34.77A102.44,102.44,0,0,0,28,32.2c-.57.61-1.14,1.24-1.71,1.87A101.56,101.56,0,0,0,2.52,80.15Q1.87,83,1.4,85.87a102.12,102.12,0,0,0-.51,30.28,102.31,102.31,0,0,0,24.77,54.43,102.33,102.33,0,0,0,32.81,24.67l.17.08.31.14a100.26,100.26,0,0,0,15.62,5.86A102.25,102.25,0,0,0,183.2,166.1a100.64,100.64,0,0,0,19.11-40.48l.38-1.84.35-1.84c.05-.31.11-.61.17-.92l.14-.93c.1-.61.21-1.23.29-1.85.36-2.47.6-5,.78-7.45C204.27,112,204.16,113.27,204,114.51Z"/></g></g></svg>